<?xml version="1.0" encoding="UTF-8" standalone="no"?>
<svg
   xmlns:dc="http://purl.org/dc/elements/1.1/"
   xmlns:cc="http://creativecommons.org/ns#"
   xmlns:rdf="http://www.w3.org/1999/02/22-rdf-syntax-ns#"
   xmlns:svg="http://www.w3.org/2000/svg"
   xmlns="http://www.w3.org/2000/svg"
   xmlns:sodipodi="http://sodipodi.sourceforge.net/DTD/sodipodi-0.dtd"
   xmlns:inkscape="http://www.inkscape.org/namespaces/inkscape"
   height="100%"
   style="fill-rule:evenodd;clip-rule:evenodd;stroke-linejoin:round;stroke-miterlimit:2;"
   version="1.1"
   viewBox="0 0 512 512"
   width="100%"
   xml:space="preserve"
   id="svg1512"
   sodipodi:docname="twitter.svg"
   inkscape:version="1.0.1 (c497b03c, 2020-09-10)"><metadata
     id="metadata1518"><rdf:RDF><cc:Work
         rdf:about=""><dc:format>image/svg+xml</dc:format><dc:type
           rdf:resource="http://purl.org/dc/dcmitype/StillImage" /></cc:Work></rdf:RDF></metadata><defs
     id="defs1516" /><sodipodi:namedview
     pagecolor="#ffffff"
     bordercolor="#666666"
     borderopacity="1"
     objecttolerance="10"
     gridtolerance="10"
     guidetolerance="10"
     inkscape:pageopacity="0"
     inkscape:pageshadow="2"
     inkscape:window-width="1173"
     inkscape:window-height="659"
     id="namedview1514"
     showgrid="false"
     inkscape:zoom="1.3066406"
     inkscape:cx="108.67564"
     inkscape:cy="256"
     inkscape:window-x="0"
     inkscape:window-y="23"
     inkscape:window-maximized="0"
     inkscape:current-layer="svg1512" /><path
     d="M 256,0 C 397.29,0 512,114.71 512,256 512,397.29 397.29,512 256,512 114.71,512 0,397.29 0,256 0,114.71 114.71,0 256,0 Z m -45.091,392.158 c 113.283,0 175.224,-93.87 175.224,-175.223 0,-2.682 0,-5.364 -0.128,-7.919 12.005,-8.684 22.478,-19.54 30.779,-31.928 -10.983,4.853 -22.861,8.174 -35.377,9.706 12.772,-7.663 22.478,-19.668 27.076,-34.099 -11.878,7.024 -25.032,12.132 -39.081,14.942 -11.239,-12.005 -27.203,-19.412 -44.955,-19.412 -33.972,0 -61.558,27.586 -61.558,61.558 0,4.853 0.511,9.578 1.66,14.048 -51.213,-2.554 -96.552,-27.075 -126.947,-64.368 -5.237,9.068 -8.302,19.668 -8.302,30.907 0,21.328 10.856,40.23 27.459,51.213 -10.09,-0.255 -19.541,-3.065 -27.842,-7.662 v 0.766 c 0,29.885 21.2,54.661 49.425,60.409 -5.108,1.404 -10.6,2.171 -16.219,2.171 -3.96,0 -7.791,-0.383 -11.622,-1.15 7.79,24.521 30.523,42.274 57.471,42.784 -21.073,16.476 -47.637,26.31 -76.501,26.31 -4.981,0 -9.834,-0.256 -14.687,-0.894 26.948,17.624 59.387,27.841 94.125,27.841 z"
     id="path1510"
     style="stroke-width:1;fill:#1e1e1e;fill-opacity:1" /></svg>
